# xmcd CD database file
#
# Track frame offsets:
#	150
#	12676
#	39216
#	66210
#	100059
#	123499
#	156349
#	174689
#	186461
#	209986
#	229490
#	251484
#	268703
#	284888
#	304033
#	322478
#
# Disc length: 4537 seconds
#
# Revision: 0
# Processed by: cddbd v1.5.1PL0 Copyright (c) Steve Scherf et al.
# Submitted via: CDex 1.51
#
DISCID=0711b710
DTITLE=Various Artist - Voices of Jazz CD2
DYEAR=2005
DGENRE=Jazz
TTITLE0=Dinah Washington - Mad About The Boy
TTITLE1=Louis Armstrong and Ella Fitzgerald - Cheek To Cheek
TTITLE2=Claudia Acuna - Nature Boy
TTITLE3=Al Jarreau - Try A Little Tenderness
TTITLE4=Diane Schuur - New York State Of Mind
TTITLE5=Gerald Albright and Will Downing - The Nearness Of You
TTITLE6=Oleta Adams - I've Got To Sing My Song
TTITLE7=Nina Simone - I Put A Spell On You
TTITLE8=Shirley Horn - Take Love Easy
TTITLE9=Helen Merrill - You'd Be So Nice To Come Home To
TTITLE10=Brenda Russell - Get Here
TTITLE11=Carmen McRae - When I Fall In Love
TTITLE12=Lizz Wright - Eternity
TTITLE13=Francis Goya and Carmina - Cantinero Di Cuba
TTITLE14=Swing Out Sisters - Am I The Same Girl
TTITLE15=Wet Wet Wet - Beyond The Sea
EXTD=YEAR: 2005
EXTT0=
EXTT1=
EXTT2=
EXTT3=
EXTT4=
EXTT5=
EXTT6=
EXTT7=
EXTT8=
EXTT9=
EXTT10=
EXTT11=
EXTT12=
EXTT13=
EXTT14=
EXTT15=
PLAYORDER=
